<svg width="63" height="39" viewBox="0 0 63 39" fill="none" xmlns="http://www.w3.org/2000/svg">
<path fill-rule="evenodd" clip-rule="evenodd" d="M59.85 39H3.15C1.41033 39 0 37.6032 0 35.88V3.12C0 1.3969 1.41033 0 3.15 0H59.85C61.5897 0 63 1.3969 63 3.12V35.88C63 37.6032 61.5897 39 59.85 39ZM18.9 20.28C19.7699 20.28 20.475 19.5816 20.475 18.72V4.68C20.475 3.81841 19.7699 3.12 18.9 3.12H4.725C3.85513 3.12 3.15 3.81841 3.15 4.68V18.72C3.15 19.5816 3.85513 20.28 4.725 20.28H18.9ZM38.8594 24.2149C38.8044 24.5589 38.3215 24.7628 36.9254 24.7628C36.578 24.7628 36.297 24.7501 36.0759 24.7246C36.7151 24.1065 37.3952 23.7561 38.1158 23.7561C38.624 23.7561 38.8972 23.9792 38.8594 24.2149ZM41.2028 20.9846L40.7117 24.0556C40.6311 24.5589 40.5015 24.6863 40.0834 24.6864C39.7811 24.6864 39.6191 24.6545 39.4962 24.5781C39.5487 24.4506 39.5894 24.3168 39.6118 24.1767C39.7463 23.3357 39.2442 22.6539 38.3178 22.6539C37.3013 22.6539 36.3525 23.3165 35.4868 24.5462C35.3487 24.4443 35.3132 24.3041 35.3428 24.1193L35.3876 23.839H34.5127L34.4668 24.1257C34.4036 24.5207 34.2355 24.6863 33.8111 24.6864C33.2839 24.6863 33.1319 24.5908 33.1726 24.3359L33.1777 24.3041C33.3446 24.2658 33.4957 24.2467 33.6243 24.2467H33.7208L33.8818 23.2401H33.7274C33.3414 23.2401 33.1341 23.2082 32.6975 23.0425L31.7298 22.7367C31.3266 22.6029 31.1194 22.571 30.9265 22.571C30.2123 22.571 29.7007 23.0745 29.5504 23.9346H30.3867C30.4389 23.7689 30.571 23.667 30.7512 23.667C30.8991 23.667 31.0044 23.6925 31.2259 23.7561L31.7472 23.9154C31.8332 23.9409 31.9203 23.96 32.0008 23.9792C31.7204 24.0428 31.4306 24.1257 31.1064 24.2213L29.6336 24.6609L29.489 25.5656H29.8621C30.3125 25.5656 30.3994 25.7058 30.379 25.8332C30.3373 26.0945 29.7541 26.241 28.7891 26.241C27.8112 26.241 27.4009 25.9098 27.5059 25.2534C27.5375 25.0559 27.6084 24.8138 27.7047 24.5334H26.7653C26.6481 24.8648 26.5565 25.1961 26.5086 25.4956C26.3079 26.7507 26.9598 27.3815 28.5166 27.3815C30.0093 27.3815 31.0548 26.7571 31.1934 25.8906C31.2392 25.6039 31.1411 25.2917 30.8033 25.1515L31.5504 24.8648C31.8796 24.7373 32.1607 24.6291 32.413 24.5398C32.3134 25.3234 32.6517 25.7821 33.4234 25.7823H33.4236H33.4239C33.9898 25.7821 34.373 25.4763 34.5324 24.922C34.5846 25.521 35.219 25.8587 36.5379 25.8587C37.5801 25.8587 38.3505 25.6676 38.8687 25.3236C39.0118 25.6356 39.2842 25.7821 39.6957 25.7823H40.0688C41.021 25.7823 41.5431 25.2534 41.7274 24.1002L42.2257 20.9846H41.2028ZM46.2953 22.7304C46.572 22.7304 46.804 22.5265 46.8467 22.2589C46.8906 21.9848 46.7247 21.7746 46.4481 21.7746C46.1714 21.7746 45.932 21.9848 45.8881 22.2589C45.8453 22.5265 46.0186 22.7304 46.2953 22.7304ZM45.8329 23.0872C45.8986 23.8835 45.9134 24.5143 45.8218 25.0877C45.6914 25.9033 45.4122 26.241 44.8461 26.241C44.6788 26.241 44.476 26.2218 44.2945 26.19L44.1162 27.3049C44.3245 27.3304 44.51 27.3368 44.6965 27.3368C45.8739 27.3368 46.5091 26.6233 46.7607 25.0496C46.8596 24.4315 46.8826 23.7243 46.8366 23.0872H45.8329ZM47.9317 20.9846L47.1645 25.7823H48.1875L48.9546 20.9846H47.9317ZM50.1897 24.6864C49.7458 24.6864 49.5766 24.5781 49.6133 24.3487C49.6509 24.1129 49.9023 23.909 50.2175 23.909C50.6936 23.909 50.9972 24.183 51.0583 24.6864H50.1897ZM54.8294 23.4311L54.5598 23.3866C54.9175 23.2019 55.1155 22.8897 55.1959 22.3863L55.4201 20.9846H54.3907L54.1543 22.4628C54.0749 22.9596 53.8872 23.0872 53.2052 23.0872H52.4525L52.2936 24.081H52.6989C53.3616 24.081 53.6555 24.0938 54.057 24.1576L54.5575 24.2467C54.7582 24.2786 54.9407 24.3041 55.1114 24.3232C54.9658 24.3487 54.8191 24.3806 54.6522 24.4188L54.2187 24.5143C53.5925 24.6482 53.2712 24.6864 52.615 24.6864H51.9653H51.9652H51.7723C51.8301 23.5204 51.366 22.8833 50.6132 22.8833C49.7832 22.8833 49.0176 23.6479 48.8801 24.508C48.7547 25.2917 49.1845 25.7823 50.1496 25.7823H50.9024C50.7148 26.19 50.3589 26.3238 49.6769 26.3238C49.4068 26.3238 49.0837 26.2919 48.7238 26.2091L48.5618 27.2222C48.9153 27.3049 49.264 27.3368 49.5407 27.3368C50.6485 27.3368 51.2815 26.7179 51.5819 25.7823H52.3947C53.0766 25.7823 53.4468 25.6803 54.2295 25.2917L54.7602 25.0305C55.4789 24.68 55.7452 24.5844 56.1697 24.5844H56.35L56.5109 23.5777H56.3629C55.9126 23.5777 55.5133 23.5396 54.8294 23.4311ZM57.4013 20.9846L56.6341 25.7823H57.6571L58.4243 20.9846H57.4013ZM24.2766 31.5849H21.5897L21.9613 29.2916H21.3396L20.5321 34.3523H21.1538L21.5111 32.1016H24.198L23.8407 34.3523H24.4624L25.2699 29.2916H24.6482L24.2766 31.5849ZM28.6504 32.144H26.4851C26.671 31.3867 27.1854 31.0752 27.7142 31.0752C28.3931 31.0752 28.7076 31.4009 28.6504 32.144ZM27.75 30.5939C26.6495 30.5939 25.7991 31.5212 25.7991 32.8306C25.7991 33.7578 26.3994 34.4161 27.4141 34.4161C28.1716 34.4161 28.8291 34.048 29.0577 33.2836H28.4647C28.3217 33.7083 27.9573 33.9277 27.4355 33.9277C26.721 33.9277 26.4065 33.5313 26.4065 32.8589C26.4065 32.7739 26.4065 32.6961 26.4137 32.6182H29.1792L29.2007 32.4838C29.4008 31.2168 28.7648 30.5939 27.75 30.5939ZM31.5163 33.9277C30.8517 33.9277 30.5087 33.4747 30.5087 32.7457C30.5087 31.783 30.9517 31.0753 31.7735 31.0753C32.3738 31.0753 32.8097 31.5353 32.8097 32.229C32.8097 33.2695 32.2309 33.9277 31.5163 33.9277ZM32.9455 31.3229C32.774 30.969 32.4452 30.5869 31.7521 30.5869C30.5872 30.5869 29.8798 31.5919 29.8798 32.7739C29.8798 33.7649 30.4943 34.4161 31.3948 34.4161C31.9522 34.4161 32.3523 34.1329 32.6168 33.6799C32.5882 33.8923 32.5739 34.14 32.5882 34.3523H33.1528C33.1384 34.048 33.1528 33.7507 33.2314 33.2482L33.6458 30.6505H33.0527L32.9455 31.3229ZM34.3535 34.3524H34.9538L35.8255 28.881H35.2253L34.3535 34.3524ZM37.6979 29.8083H37.1049L36.969 30.6506H36.4331L36.3545 31.146H36.8904L36.5403 33.3402C36.4474 33.9419 36.7118 34.4019 37.4478 34.4019C37.6194 34.4019 37.7765 34.3736 37.9052 34.317L37.9838 33.8286C37.848 33.8781 37.6836 33.9065 37.5408 33.9065C37.2049 33.9065 37.062 33.7649 37.1263 33.3615L37.4836 31.146H38.3339L38.4126 30.6506H37.5622L37.6979 29.8083ZM41.1997 30.5869C40.5923 30.5869 40.1636 30.9479 39.942 31.3089L40.3279 28.881H39.7347L38.863 34.3523H39.456L39.7991 32.2006C39.9134 31.4999 40.4494 31.0894 41.0711 31.0894C41.5856 31.0894 41.8143 31.3867 41.7143 32.0024L41.3355 34.3523H41.9286L42.2859 32.1369C42.4646 31.0186 41.9787 30.5869 41.1997 30.5869ZM45.1447 31.8043H44.2871L44.6086 29.787H45.4234C46.1094 29.787 46.4452 30.0419 46.4452 30.6152C46.4452 31.3725 46.0093 31.8043 45.1447 31.8043ZM45.4876 29.2916H44.0656L43.2581 34.3524H43.8798L44.2085 32.2927H45.1089C46.1094 32.2927 47.0598 31.8468 47.0598 30.6081C47.0598 29.7233 46.4166 29.2916 45.4876 29.2916ZM49.0682 33.9277C48.4036 33.9277 48.0606 33.4747 48.0606 32.7457C48.0606 31.783 48.5036 31.0753 49.3255 31.0753C49.9258 31.0753 50.3616 31.5353 50.3616 32.229C50.3616 33.2695 49.7827 33.9277 49.0682 33.9277ZM50.4973 31.3229C50.3259 30.969 49.9972 30.5869 49.304 30.5869C48.1392 30.5869 47.4317 31.5919 47.4317 32.7739C47.4317 33.7649 48.0462 34.4161 48.9467 34.4161C49.5041 34.4161 49.9043 34.1329 50.1687 33.6799C50.14 33.8923 50.1258 34.14 50.14 34.3523H50.7046C50.6903 34.048 50.7046 33.7507 50.7832 33.2482L51.1977 30.6505H50.6046L50.4973 31.3229ZM53.4061 31.0752C53.8706 31.0752 54.1636 31.3017 54.1851 31.6556H54.7425C54.6996 30.9053 54.1494 30.5869 53.4204 30.5869C52.7486 30.5869 52.1198 30.9549 52.1198 31.6627C52.1198 32.2219 52.42 32.5121 53.2561 32.7174C53.8207 32.8589 54.0136 33.0005 54.0136 33.319C54.0136 33.7012 53.7706 33.9277 53.2489 33.9277C52.5843 33.9277 52.3771 33.6091 52.3485 33.2128H51.7697C51.7839 33.8498 52.2342 34.416 53.2274 34.416C54.0636 34.416 54.5923 33.9701 54.5923 33.2907C54.5923 32.6111 54.1779 32.3776 53.4347 32.1936C52.8487 32.0519 52.6772 31.9105 52.6772 31.6273C52.6772 31.2805 52.9417 31.0752 53.4061 31.0752ZM56.9151 32.1936C56.3291 32.052 56.1576 31.9104 56.1576 31.6273C56.1576 31.2805 56.422 31.0752 56.8865 31.0752C57.351 31.0752 57.644 31.3017 57.6654 31.6557H58.2228C58.18 30.9053 57.6297 30.5869 56.9008 30.5869C56.229 30.5869 55.6002 30.9549 55.6002 31.6627C55.6002 32.2219 55.9003 32.5121 56.7364 32.7174C57.301 32.8589 57.494 33.0005 57.494 33.319C57.494 33.7012 57.251 33.9277 56.7293 33.9277C56.0647 33.9277 55.8574 33.6091 55.8289 33.2128H55.25C55.2643 33.8498 55.7146 34.416 56.7078 34.416C57.5439 34.416 58.0727 33.9701 58.0727 33.2907C58.0727 32.6112 57.6583 32.3776 56.9151 32.1936ZM29.044 27.7446C28.7674 27.7446 28.5214 27.9548 28.4777 28.2288C28.4348 28.4965 28.6145 28.7003 28.8912 28.7003C29.1614 28.7003 29.3999 28.4965 29.4427 28.2288C29.4865 27.9548 29.3143 27.7446 29.044 27.7446ZM27.931 27.7446C27.6543 27.7446 27.4149 27.9548 27.3711 28.2288C27.3282 28.4965 27.5015 28.7003 27.7781 28.7003C28.0484 28.7003 28.2869 28.4965 28.3296 28.2288C28.3735 27.9548 28.2013 27.7446 27.931 27.7446ZM42.1532 25.7823H43.1761L43.9433 20.9846H42.9203L42.1532 25.7823ZM53.841 26.1518C53.5644 26.1518 53.326 26.3557 53.2821 26.6296C53.2393 26.8972 53.4127 27.1011 53.6893 27.1011C53.9659 27.1011 54.198 26.8972 54.2407 26.6296C54.2846 26.3557 54.1177 26.1518 53.841 26.1518Z" fill="white"/>
<path fill-rule="evenodd" clip-rule="evenodd" d="M11.8125 17.94C15.7725 14.9983 18.1125 11.7446 18.1125 9.15948C18.1125 6.84171 16.8525 5.46002 14.6925 5.46002C13.3425 5.46002 12.3075 6.35148 11.8575 7.82233H11.7675C11.3175 6.35148 10.2825 5.46002 8.93255 5.46002C6.77251 5.46002 5.51251 6.84171 5.51251 9.15948C5.51251 11.7446 7.85249 14.9983 11.8125 17.94Z" fill="white"/>
</svg>
